<?xml version="1.0" standalone="no"?>
<!DOCTYPE svg PUBLIC "-//W3C//DTD SVG 20010904//EN"
 "http://www.w3.org/TR/2001/REC-SVG-20010904/DTD/svg10.dtd">
<svg version="1.0" xmlns="http://www.w3.org/2000/svg"
 width="1024.000000pt" height="1024.000000pt" viewBox="0 0 1024.000000 1024.000000"
 preserveAspectRatio="xMidYMid meet">
<metadata>
Created by potrace 1.14, written by Peter Selinger 2001-2017
</metadata>
<g transform="translate(0.000000,1024.000000) scale(0.100000,-0.100000)"
fill="#000000" stroke="none">
<path d="M1850 8755 c0 -3 21 -38 47 -78 42 -65 68 -106 139 -217 12 -19 108
-172 214 -340 212 -335 419 -662 495 -783 28 -42 55 -85 60 -94 6 -9 42 -66
80 -127 39 -61 81 -128 94 -148 l22 -38 -105 -105 c-58 -57 -106 -107 -106
-111 0 -4 -10 -16 -22 -28 -33 -32 -149 -177 -188 -236 -8 -12 -23 -33 -32
-45 -10 -13 -18 -28 -18 -33 0 -6 -4 -12 -8 -14 -22 -8 -213 -350 -226 -404
-7 -26 -9 -27 -20 -12 -7 10 -16 15 -19 11 -4 -3 -12 -1 -19 4 -7 6 -56 32
-108 59 -52 26 -121 63 -153 82 -32 18 -64 31 -72 28 -14 -5 -14 -25 0 -226 3
-36 7 -114 10 -175 11 -223 12 -242 19 -253 3 -6 2 -13 -4 -17 -6 -4 -8 -11
-4 -16 3 -6 8 -45 10 -87 7 -162 19 -373 22 -404 2 -20 26 -15 54 11 33 31 47
41 58 41 6 0 13 7 16 15 4 8 12 15 19 15 7 0 15 7 19 15 3 8 11 15 17 15 6 0
21 10 33 23 11 12 38 33 59 46 20 12 37 27 37 32 0 5 7 9 15 9 8 0 15 5 15 10
0 6 5 10 12 10 6 0 18 7 27 15 33 32 86 75 93 75 4 0 19 11 34 25 15 14 33 25
40 25 8 0 14 4 14 8 0 5 27 28 60 52 33 24 60 47 60 52 0 4 7 8 15 8 8 0 15 5
15 10 0 6 7 10 15 10 7 0 18 6 22 13 4 8 22 22 38 33 17 10 34 24 38 31 4 7
15 13 22 13 8 0 15 5 15 10 0 6 6 10 13 10 21 0 35 20 30 41 -3 10 -12 19 -19
19 -8 0 -17 7 -20 15 -4 8 -11 12 -17 8 -5 -3 -16 2 -24 12 -7 11 -13 15 -13
11 0 -8 -242 115 -274 139 -19 15 -18 19 48 148 38 72 85 158 105 189 57 91
242 340 273 370 15 14 28 29 28 33 0 4 18 24 40 46 22 22 40 44 40 49 0 6 4
10 10 10 5 0 26 17 46 38 22 21 39 32 41 25 2 -6 17 -30 34 -52 16 -23 29 -43
29 -45 0 -2 30 -51 66 -108 36 -56 82 -129 103 -162 20 -32 50 -80 66 -105 17
-26 35 -54 40 -64 6 -9 51 -80 100 -157 50 -77 97 -153 106 -168 9 -15 139
-220 289 -457 150 -236 326 -514 391 -617 l117 -188 1 -1405 c0 -773 -4 -1403
-8 -1400 -14 8 -74 -17 -93 -38 -24 -27 -31 -71 -18 -111 13 -40 68 -72 115
-67 17 2 84 5 151 8 l120 4 14 -26 c7 -14 24 -28 37 -31 13 -4 23 -10 23 -14
0 -4 18 -7 40 -6 28 2 46 10 65 30 14 15 25 31 25 37 0 5 42 9 94 9 89 0 95
-1 102 -22 19 -60 101 -88 154 -51 26 18 38 32 38 47 0 5 6 13 14 17 16 11
198 12 198 1 0 -14 42 -33 83 -38 35 -4 46 -1 69 20 25 24 34 26 123 26 71 0
95 3 94 13 -1 6 -1 29 0 50 l1 37 20 -20 c28 -28 69 -42 100 -35 67 16 280 88
280 95 0 5 29 18 64 30 36 12 70 28 76 35 7 8 27 17 46 21 19 3 34 10 34 15 0
4 18 14 40 20 22 7 40 16 40 21 0 4 29 22 65 38 36 16 65 33 65 37 0 5 21 17
46 28 25 11 49 25 52 30 10 15 70 55 82 55 5 0 10 5 10 10 0 6 7 10 15 10 7 0
18 6 22 13 4 8 21 22 38 33 16 10 37 26 46 34 30 29 69 60 75 60 3 0 15 11 28
25 13 14 28 25 35 25 6 0 11 7 11 15 0 8 5 15 10 15 6 0 37 27 70 60 33 33 65
60 72 60 6 0 9 3 6 6 -3 3 15 27 41 54 59 62 121 132 121 136 0 2 10 14 23 27
37 39 63 72 70 90 3 9 11 17 17 17 5 0 10 5 10 11 0 5 15 30 33 53 17 24 38
52 44 62 32 49 60 93 77 124 11 19 23 37 27 40 12 8 151 285 183 365 16 39 34
84 41 100 36 86 112 340 130 433 2 9 4 17 5 17 6 0 45 224 55 315 14 136 18
215 18 355 0 155 -9 330 -18 344 -2 5 -7 35 -10 67 -9 100 -13 133 -19 142 -3
5 -8 34 -12 63 -8 66 -149 533 -174 574 -10 17 -23 48 -30 70 -7 22 -18 47
-25 55 -7 8 -16 29 -19 46 -4 18 -16 40 -26 49 -10 9 -22 30 -25 46 -4 16 -10
29 -15 29 -5 0 -11 14 -15 31 -4 17 -13 33 -20 36 -8 2 -17 18 -20 34 -4 16
-11 29 -16 29 -5 0 -9 7 -9 15 0 8 -9 23 -20 32 -11 10 -20 21 -20 26 0 10
-42 71 -52 75 -5 2 -8 10 -8 17 0 8 -6 18 -13 22 -7 4 -21 25 -32 46 -11 20
-25 37 -32 37 -7 0 -13 6 -13 14 0 7 -11 25 -25 40 -14 15 -25 31 -25 35 0 5
-7 11 -15 15 -8 3 -15 13 -15 21 0 9 -4 13 -10 10 -5 -3 -10 1 -10 9 0 9 -7
16 -15 16 -8 0 -15 7 -15 15 0 8 -4 15 -10 15 -5 0 -10 7 -10 15 0 8 -4 15 -9
15 -13 0 -111 102 -111 116 0 5 21 44 48 85 26 41 52 82 57 92 9 14 527 830
580 914 66 102 140 220 191 301 33 52 66 104 74 117 8 12 30 47 48 76 18 30
70 114 117 187 l84 132 -834 0 -834 0 -14 -27 c-13 -27 -178 -311 -447 -771
-141 -240 -132 -224 -183 -314 -21 -37 -43 -65 -50 -63 -6 2 -43 13 -82 25
-38 12 -77 24 -85 27 -8 4 -18 6 -22 5 -4 -1 -23 5 -42 13 -20 9 -36 12 -36 9
0 -4 -6 -1 -13 5 -8 6 -16 8 -19 6 -3 -3 -18 -1 -34 5 -16 7 -40 13 -54 15
-14 2 -52 9 -85 15 -126 23 -241 40 -329 46 -170 13 -569 6 -596 -11 -6 -4
-35 -9 -63 -11 -99 -7 -132 -12 -160 -23 -16 -6 -43 -11 -60 -11 -18 0 -88
-17 -158 -38 l-125 -38 -39 65 c-21 36 -108 183 -193 326 -85 143 -160 269
-166 280 -13 23 -241 409 -262 443 l-14 22 -845 0 c-465 0 -845 -2 -845 -5z
m3530 -1219 c19 -2 62 -7 95 -11 33 -3 87 -11 120 -17 33 -6 70 -12 82 -13 12
-2 36 -7 55 -11 18 -4 35 -8 38 -9 3 0 11 -4 18 -9 7 -4 16 -6 19 -3 2 3 22
-1 44 -8 21 -8 39 -12 39 -9 0 3 6 2 13 -3 6 -4 17 -8 22 -8 17 -1 119 -35
133 -44 15 -9 5 -32 -51 -118 -15 -24 -27 -44 -27 -47 0 -4 -139 -244 -160
-276 -5 -8 -17 -28 -26 -45 -9 -16 -127 -219 -262 -450 -135 -231 -259 -444
-275 -473 l-29 -53 -25 33 c-13 18 -31 47 -39 63 -8 17 -20 39 -27 50 -7 11
-93 155 -191 320 -98 165 -195 327 -215 360 -20 33 -43 72 -51 86 -20 35 -310
522 -332 557 -22 36 -22 37 7 40 13 1 59 11 102 23 43 12 100 25 126 30 26 4
58 11 70 15 12 4 42 9 67 10 25 2 59 6 75 9 17 3 64 8 105 11 41 2 75 6 77 7
4 4 363 -2 403 -7z m1860 -901 c7 -14 19 -25 27 -25 7 0 13 -5 13 -11 0 -6 12
-23 28 -38 43 -45 72 -80 72 -90 0 -5 7 -11 15 -15 8 -3 15 -13 15 -21 0 -9 5
-13 10 -10 6 3 10 -1 10 -9 0 -8 6 -19 14 -23 8 -4 24 -25 36 -45 12 -21 26
-38 31 -38 5 0 9 -5 9 -11 0 -6 14 -31 30 -56 17 -24 30 -46 30 -49 0 -2 9
-13 20 -24 11 -11 20 -27 20 -35 0 -8 4 -15 9 -15 5 0 12 -11 15 -25 4 -14 15
-34 26 -45 11 -11 20 -29 20 -40 0 -11 4 -20 9 -20 5 0 12 -14 16 -31 4 -17
15 -39 25 -49 11 -11 24 -38 30 -61 7 -23 17 -52 25 -63 7 -12 28 -64 46 -116
18 -52 37 -98 42 -101 5 -4 6 -12 3 -18 -4 -6 -3 -11 2 -11 10 0 45 -107 38
-118 -2 -4 9 -57 26 -117 17 -61 30 -117 30 -125 0 -8 4 -30 10 -47 5 -18 11
-56 14 -85 2 -29 6 -66 9 -83 23 -122 22 -517 0 -675 -3 -19 -8 -53 -11 -75
-10 -72 -11 -79 -24 -145 -16 -83 -18 -95 -20 -95 -1 0 -3 -9 -5 -20 -10 -56
-82 -284 -121 -380 -28 -72 -39 -99 -78 -185 -6 -14 -13 -27 -16 -30 -3 -3
-19 -32 -35 -65 -68 -134 -97 -185 -106 -185 -5 0 -9 -5 -9 -10 0 -13 -87
-147 -117 -180 -13 -14 -23 -30 -23 -37 0 -7 -3 -13 -8 -13 -4 0 -34 -35 -67
-77 -68 -87 -277 -303 -294 -303 -6 0 -11 -7 -11 -15 0 -8 -5 -15 -11 -15 -7
0 -22 -11 -35 -25 -13 -14 -26 -25 -29 -25 -3 0 -16 -11 -29 -25 -13 -14 -28
-25 -34 -25 -6 0 -15 -6 -19 -13 -4 -8 -21 -22 -38 -33 -16 -10 -34 -24 -38
-31 -4 -7 -15 -13 -22 -13 -8 0 -15 -4 -15 -10 0 -5 -6 -10 -13 -10 -7 0 -20
-9 -30 -20 -9 -11 -23 -20 -31 -20 -8 0 -16 -7 -20 -15 -3 -8 -12 -15 -21 -15
-8 0 -15 -4 -15 -9 0 -5 -11 -12 -25 -15 -14 -4 -34 -15 -45 -26 -11 -11 -27
-20 -35 -20 -8 0 -15 -4 -15 -9 0 -5 -13 -12 -30 -16 -16 -4 -32 -11 -36 -16
-6 -11 -113 -61 -166 -78 -21 -7 -38 -17 -38 -21 0 -5 -37 -21 -82 -35 -46
-14 -105 -35 -133 -47 -27 -11 -64 -27 -82 -34 -17 -8 -35 -14 -40 -14 -6 0
-15 -10 -21 -22 -14 -30 -13 -142 -13 1439 l0 1353 38 58 c21 31 43 65 48 74
11 18 279 441 330 520 16 26 57 90 90 142 33 53 84 132 113 177 28 44 52 85
52 90 0 5 5 9 10 9 6 0 10 5 10 11 0 5 18 37 40 69 22 32 40 64 40 69 0 6 3
11 8 11 4 0 12 9 17 19 12 23 167 270 358 568 48 76 93 147 100 158 30 49 49
75 56 75 4 0 14 -11 21 -25z"/>
<path d="M2200 3846 c-50 -18 -77 -73 -61 -127 9 -30 21 -44 53 -60 36 -19 45
-20 84 -9 24 7 44 18 44 25 0 7 7 18 15 25 31 26 8 117 -37 143 -34 20 -50 20
-98 3z"/>
<path d="M2356 3486 c-47 -13 -77 -51 -83 -102 -3 -32 1 -44 23 -67 14 -16 36
-32 49 -37 53 -20 143 32 147 84 4 65 -9 88 -68 117 -24 12 -38 13 -68 5z"/>
<path d="M2514 3131 c-51 -26 -71 -113 -36 -158 27 -35 79 -52 120 -41 19 5
41 15 47 22 20 20 36 56 30 66 -3 6 -2 10 4 10 6 0 6 12 -1 33 -13 35 -31 57
-47 57 -6 0 -11 5 -11 11 0 5 -4 8 -9 4 -5 -3 -12 -1 -15 4 -9 13 -48 10 -82
-8z"/>
<path d="M2770 2822 c-49 -21 -79 -61 -79 -103 1 -43 9 -70 19 -64 6 3 10 0
10 -8 0 -19 49 -39 94 -39 25 0 42 8 61 27 14 16 26 32 26 36 1 5 2 13 3 18 0
5 4 12 7 16 4 3 2 21 -3 39 -15 49 -97 95 -138 78z"/>
<path d="M3060 2533 c-75 -27 -100 -56 -98 -115 1 -29 43 -84 68 -90 8 -2 17
-6 20 -10 3 -4 25 -1 49 6 61 18 87 61 75 123 -12 59 -69 102 -114 86z"/>
<path d="M3359 2281 c-46 -14 -70 -32 -81 -59 -27 -67 11 -142 74 -147 3 0 9
-3 13 -7 17 -17 105 34 105 62 0 5 4 10 10 10 10 0 7 51 -6 85 -8 21 -42 55
-55 55 -4 0 -13 2 -21 4 -7 2 -25 1 -39 -3z"/>
<path d="M3652 2061 c-31 -27 -55 -88 -47 -120 7 -27 37 -61 55 -61 5 0 10 -3
10 -7 0 -13 63 -14 92 -2 15 6 25 15 22 20 -3 5 -1 9 4 9 5 0 14 11 20 25 33
71 -10 144 -88 151 -35 4 -50 0 -68 -15z"/>
<path d="M4021 1903 c-71 -35 -78 -134 -12 -178 36 -25 111 -35 111 -15 0 6 7
10 15 10 15 0 51 58 46 75 -1 5 -4 19 -6 30 -6 42 -17 61 -46 78 -38 21 -64
21 -108 0z"/>
</g>
</svg>
